<svg xmlns="http://www.w3.org/2000/svg" viewBox="0 0 1200 760" role="img" aria-labelledby="title desc">
  <title id="title">Bridge Layer</title>
  <desc id="desc">care · evidence · trust · action</desc>
  <defs>
    <linearGradient id="bg" x1="0" x2="1" y1="0" y2="1">
      <stop offset="0" stop-color="#07111f"/>
      <stop offset="0.55" stop-color="#101827"/>
      <stop offset="1" stop-color="#1d1233"/>
    </linearGradient>
    <radialGradient id="a" cx="25%" cy="20%" r="70%">
      <stop offset="0" stop-color="#2dd4ff" stop-opacity="0.65"/>
      <stop offset="0.45" stop-color="#2dd4ff" stop-opacity="0.16"/>
      <stop offset="1" stop-color="#2dd4ff" stop-opacity="0"/>
    </radialGradient>
    <radialGradient id="b" cx="80%" cy="70%" r="65%">
      <stop offset="0" stop-color="#9b5cff" stop-opacity="0.55"/>
      <stop offset="0.46" stop-color="#9b5cff" stop-opacity="0.14"/>
      <stop offset="1" stop-color="#9b5cff" stop-opacity="0"/>
    </radialGradient>
    <filter id="blur"><feGaussianBlur stdDeviation="16"/></filter>
    <style>
      .thin{fill:none;stroke:#f7fbff;stroke-opacity:.16;stroke-width:2}
      .line{fill:none;stroke:#f7fbff;stroke-opacity:.34;stroke-width:3;stroke-linecap:round}
      .accent{fill:none;stroke:#2dd4ff;stroke-width:6;stroke-linecap:round;stroke-linejoin:round}
      .accent2{fill:none;stroke:#9b5cff;stroke-width:5;stroke-linecap:round;stroke-linejoin:round}
      .dot{fill:#f7fbff;fill-opacity:.82}
      .soft{fill:#f7fbff;fill-opacity:.08}
      .label{font-family:-apple-system,BlinkMacSystemFont,'SF Pro Display','Inter',Arial,sans-serif;font-weight:700;letter-spacing:.14em;fill:#d9e6ff;fill-opacity:.72;font-size:26px;text-transform:uppercase}
      .title{font-family:-apple-system,BlinkMacSystemFont,'SF Pro Display','Inter',Arial,sans-serif;font-weight:800;fill:#f5f8ff;font-size:58px;letter-spacing:-.06em}
      .micro{font-family:-apple-system,BlinkMacSystemFont,'SF Mono',monospace;fill:#9fb3c8;font-size:20px}
    </style>
  </defs>
  <rect width="1200" height="760" rx="56" fill="url(#bg)"/>
  <rect width="1200" height="760" rx="56" fill="url(#a)"/>
  <rect width="1200" height="760" rx="56" fill="url(#b)"/>
  <g opacity=".38">
    <path class="thin" d="M80 140 H1120 M80 260 H1120 M80 380 H1120 M80 500 H1120 M80 620 H1120"/>
    <path class="thin" d="M160 70 V690 M340 70 V690 M520 70 V690 M700 70 V690 M880 70 V690 M1060 70 V690"/>
  </g>
  
  <g transform="translate(120,150)">
    <circle cx="250" cy="190" r="120" class="soft"/>
    <circle cx="600" cy="185" r="150" class="soft"/>
    <circle cx="850" cy="330" r="110" class="soft"/>
    <path class="line" d="M250 190 C390 70 515 85 600 185 S760 375 850 330"/>
    <path class="accent" d="M185 210 L250 145 L316 210 M250 145 V306"/>
    <path class="accent2" d="M520 180 C560 120 640 120 680 180 C720 240 650 300 600 330 C550 300 480 240 520 180Z"/>
    <path class="line" d="M780 300 H920 M850 230 V370"/>
    <circle cx="250" cy="145" r="12" class="dot"/><circle cx="600" cy="330" r="12" class="dot"/><circle cx="850" cy="300" r="12" class="dot"/>
  </g>
  <text x="82" y="106" class="label">ZY LEE SYSTEM</text>
  <text x="82" y="668" class="title">Bridge Layer</text>
  <text x="84" y="706" class="micro">care · evidence · trust · action</text>
</svg>