<svg xmlns="http://www.w3.org/2000/svg" viewBox="0 0 1200 760" role="img" aria-labelledby="title desc">
  <title id="title">Impact Pipeline</title>
  <desc id="desc">problem · audience · translation · outcome</desc>
  <defs>
    <linearGradient id="bg" x1="0" x2="1" y1="0" y2="1">
      <stop offset="0" stop-color="#07111f"/>
      <stop offset="0.55" stop-color="#101827"/>
      <stop offset="1" stop-color="#1d1233"/>
    </linearGradient>
    <radialGradient id="a" cx="25%" cy="20%" r="70%">
      <stop offset="0" stop-color="#22c55e" stop-opacity="0.65"/>
      <stop offset="0.45" stop-color="#22c55e" stop-opacity="0.16"/>
      <stop offset="1" stop-color="#22c55e" stop-opacity="0"/>
    </radialGradient>
    <radialGradient id="b" cx="80%" cy="70%" r="65%">
      <stop offset="0" stop-color="#38bdf8" stop-opacity="0.55"/>
      <stop offset="0.46" stop-color="#38bdf8" stop-opacity="0.14"/>
      <stop offset="1" stop-color="#38bdf8" stop-opacity="0"/>
    </radialGradient>
    <filter id="blur"><feGaussianBlur stdDeviation="16"/></filter>
    <style>
      .thin{fill:none;stroke:#f7fbff;stroke-opacity:.16;stroke-width:2}
      .line{fill:none;stroke:#f7fbff;stroke-opacity:.34;stroke-width:3;stroke-linecap:round}
      .accent{fill:none;stroke:#22c55e;stroke-width:6;stroke-linecap:round;stroke-linejoin:round}
      .accent2{fill:none;stroke:#38bdf8;stroke-width:5;stroke-linecap:round;stroke-linejoin:round}
      .dot{fill:#f7fbff;fill-opacity:.82}
      .soft{fill:#f7fbff;fill-opacity:.08}
      .label{font-family:-apple-system,BlinkMacSystemFont,'SF Pro Display','Inter',Arial,sans-serif;font-weight:700;letter-spacing:.14em;fill:#d9e6ff;fill-opacity:.72;font-size:26px;text-transform:uppercase}
      .title{font-family:-apple-system,BlinkMacSystemFont,'SF Pro Display','Inter',Arial,sans-serif;font-weight:800;fill:#f5f8ff;font-size:58px;letter-spacing:-.06em}
      .micro{font-family:-apple-system,BlinkMacSystemFont,'SF Mono',monospace;fill:#9fb3c8;font-size:20px}
    </style>
  </defs>
  <rect width="1200" height="760" rx="56" fill="url(#bg)"/>
  <rect width="1200" height="760" rx="56" fill="url(#a)"/>
  <rect width="1200" height="760" rx="56" fill="url(#b)"/>
  <g opacity=".38">
    <path class="thin" d="M80 140 H1120 M80 260 H1120 M80 380 H1120 M80 500 H1120 M80 620 H1120"/>
    <path class="thin" d="M160 70 V690 M340 70 V690 M520 70 V690 M700 70 V690 M880 70 V690 M1060 70 V690"/>
  </g>
  
  <g transform="translate(95,180)">
    <rect x="0" y="0" width="220" height="170" rx="34" class="soft"/>
    <rect x="260" y="60" width="220" height="170" rx="34" class="soft"/>
    <rect x="520" y="0" width="220" height="170" rx="34" class="soft"/>
    <rect x="780" y="60" width="220" height="170" rx="34" class="soft"/>
    <path class="line" d="M220 85 C250 85 245 145 260 145 M480 145 C510 145 505 85 520 85 M740 85 C770 85 765 145 780 145"/>
    <circle cx="110" cy="85" r="34" fill="#f7fbff" fill-opacity=".12"/><circle cx="370" cy="145" r="34" fill="#f7fbff" fill-opacity=".12"/><circle cx="630" cy="85" r="34" fill="#f7fbff" fill-opacity=".12"/><circle cx="890" cy="145" r="34" fill="#f7fbff" fill-opacity=".12"/>
    <path class="accent" d="M92 85 h36 M110 67 v36"/><path class="accent2" d="M352 145 h36"/><path class="accent" d="M612 85 h36 M630 67 v36"/><path class="accent2" d="M872 145 h36"/>
  </g>
  <text x="82" y="106" class="label">ZY LEE SYSTEM</text>
  <text x="82" y="668" class="title">Impact Pipeline</text>
  <text x="84" y="706" class="micro">problem · audience · translation · outcome</text>
</svg>