<svg xmlns="http://www.w3.org/2000/svg" viewBox="0 0 1200 760" role="img" aria-labelledby="title desc">
  <title id="title">Health Outreach</title>
  <desc id="desc">glaucoma · awareness · prevention</desc>
  <defs>
    <linearGradient id="bg" x1="0" x2="1" y1="0" y2="1">
      <stop offset="0" stop-color="#07111f"/>
      <stop offset="0.55" stop-color="#101827"/>
      <stop offset="1" stop-color="#1d1233"/>
    </linearGradient>
    <radialGradient id="a" cx="25%" cy="20%" r="70%">
      <stop offset="0" stop-color="#06b6d4" stop-opacity="0.65"/>
      <stop offset="0.45" stop-color="#06b6d4" stop-opacity="0.16"/>
      <stop offset="1" stop-color="#06b6d4" stop-opacity="0"/>
    </radialGradient>
    <radialGradient id="b" cx="80%" cy="70%" r="65%">
      <stop offset="0" stop-color="#22c55e" stop-opacity="0.55"/>
      <stop offset="0.46" stop-color="#22c55e" stop-opacity="0.14"/>
      <stop offset="1" stop-color="#22c55e" stop-opacity="0"/>
    </radialGradient>
    <filter id="blur"><feGaussianBlur stdDeviation="16"/></filter>
    <style>
      .thin{fill:none;stroke:#f7fbff;stroke-opacity:.16;stroke-width:2}
      .line{fill:none;stroke:#f7fbff;stroke-opacity:.34;stroke-width:3;stroke-linecap:round}
      .accent{fill:none;stroke:#06b6d4;stroke-width:6;stroke-linecap:round;stroke-linejoin:round}
      .accent2{fill:none;stroke:#22c55e;stroke-width:5;stroke-linecap:round;stroke-linejoin:round}
      .dot{fill:#f7fbff;fill-opacity:.82}
      .soft{fill:#f7fbff;fill-opacity:.08}
      .label{font-family:-apple-system,BlinkMacSystemFont,'SF Pro Display','Inter',Arial,sans-serif;font-weight:700;letter-spacing:.14em;fill:#d9e6ff;fill-opacity:.72;font-size:26px;text-transform:uppercase}
      .title{font-family:-apple-system,BlinkMacSystemFont,'SF Pro Display','Inter',Arial,sans-serif;font-weight:800;fill:#f5f8ff;font-size:58px;letter-spacing:-.06em}
      .micro{font-family:-apple-system,BlinkMacSystemFont,'SF Mono',monospace;fill:#9fb3c8;font-size:20px}
    </style>
  </defs>
  <rect width="1200" height="760" rx="56" fill="url(#bg)"/>
  <rect width="1200" height="760" rx="56" fill="url(#a)"/>
  <rect width="1200" height="760" rx="56" fill="url(#b)"/>
  <g opacity=".38">
    <path class="thin" d="M80 140 H1120 M80 260 H1120 M80 380 H1120 M80 500 H1120 M80 620 H1120"/>
    <path class="thin" d="M160 70 V690 M340 70 V690 M520 70 V690 M700 70 V690 M880 70 V690 M1060 70 V690"/>
  </g>
  
  <g transform="translate(135,155)">
    <path class="line" d="M120 210 C260 60 560 60 700 210 C560 360 260 360 120 210Z"/>
    <circle cx="410" cy="210" r="112" fill="#f7fbff" fill-opacity=".08" stroke="#f7fbff" stroke-opacity=".22" stroke-width="3"/>
    <circle cx="410" cy="210" r="46" fill="#f7fbff" fill-opacity=".82"/>
    <circle cx="410" cy="210" r="24" fill="#07111f" fill-opacity=".78"/>
    <path class="accent" d="M750 155 h140 M820 85 v140"/>
    <path class="accent2" d="M90 370 C200 305 310 320 420 385 C525 450 680 450 820 360"/>
    <circle cx="820" cy="155" r="78" class="soft"/>
  </g>
  <text x="82" y="106" class="label">ZY LEE SYSTEM</text>
  <text x="82" y="668" class="title">Health Outreach</text>
  <text x="84" y="706" class="micro">glaucoma · awareness · prevention</text>
</svg>